<svg xmlns="http://www.w3.org/2000/svg" viewBox="0 0 841.9 595.3">

    <symbol id='icon-telegram' viewBox="0 0 20 20">
        <path d="M1.2249 8.96853C1.2249 8.96853 10.0712 5.45587 13.1399 4.2177C14.3149 3.72415 18.3024 2.14136 18.3024 2.14136C18.3024 2.14136 20.1437 1.44843 19.9899 3.13091C19.9399 3.82261 19.5312 6.24726 19.1212 8.86884C18.5087 12.5797 17.8437 16.6351 17.8437 16.6351C17.8437 16.6351 17.7412 17.7736 16.8724 17.9717C16.0024 18.1687 14.5712 17.2788 14.3149 17.0807C14.1112 16.933 10.4812 14.7065 9.1524 13.6184C8.79365 13.3218 8.38365 12.7274 9.2024 12.0357C11.0437 10.4024 13.2412 8.37406 14.5712 7.08789C15.1837 6.49465 15.7987 5.10879 13.2412 6.79127C9.61115 9.21592 6.0324 11.4904 6.0324 11.4904C6.0324 11.4904 5.21365 11.9852 3.6799 11.5396C2.14615 11.0953 0.357404 10.5033 0.357404 10.5033C0.357404 10.5033 -0.870096 9.76116 1.22615 8.96977L1.2249 8.96853Z"/>
    </symbol>

    <symbol id='icon-list' viewBox="0 0 24 24">
        <path fill-rule="evenodd" clip-rule="evenodd" d="M3.75 18C3.75 17.8011 3.82902 17.6103 3.96967 17.4697C4.11032 17.329 4.30109 17.25 4.5 17.25H19.5C19.6989 17.25 19.8897 17.329 20.0303 17.4697C20.171 17.6103 20.25 17.8011 20.25 18C20.25 18.1989 20.171 18.3897 20.0303 18.5303C19.8897 18.671 19.6989 18.75 19.5 18.75H4.5C4.30109 18.75 4.11032 18.671 3.96967 18.5303C3.82902 18.3897 3.75 18.1989 3.75 18ZM3.75 12C3.75 11.8011 3.82902 11.6103 3.96967 11.4697C4.11032 11.329 4.30109 11.25 4.5 11.25H19.5C19.6989 11.25 19.8897 11.329 20.0303 11.4697C20.171 11.6103 20.25 11.8011 20.25 12C20.25 12.1989 20.171 12.3897 20.0303 12.5303C19.8897 12.671 19.6989 12.75 19.5 12.75H4.5C4.30109 12.75 4.11032 12.671 3.96967 12.5303C3.82902 12.3897 3.75 12.1989 3.75 12ZM3.75 6C3.75 5.80109 3.82902 5.61032 3.96967 5.46967C4.11032 5.32902 4.30109 5.25 4.5 5.25H19.5C19.6989 5.25 19.8897 5.32902 20.0303 5.46967C20.171 5.61032 20.25 5.80109 20.25 6C20.25 6.19891 20.171 6.38968 20.0303 6.53033C19.8897 6.67098 19.6989 6.75 19.5 6.75H4.5C4.30109 6.75 4.11032 6.67098 3.96967 6.53033C3.82902 6.38968 3.75 6.19891 3.75 6Z"/>
    </symbol>
    
    <svg id='icon-tiled' viewBox="0 0 24 24">
        <path d="M6 4H18C18.5304 4 19.0391 4.21071 19.4142 4.58579C19.7893 4.96086 20 5.46957 20 6V18C20 18.5304 19.7893 19.0391 19.4142 19.4142C19.0391 19.7893 18.5304 20 18 20H6C5.46957 20 4.96086 19.7893 4.58579 19.4142C4.21071 19.0391 4 18.5304 4 18V6C4 5.46957 4.21071 4.96086 4.58579 4.58579C4.96086 4.21071 5.46957 4 6 4ZM13 13V18H18V13H13ZM6 13V18H11V13H6ZM13 6V11H18V6H13ZM6 6V11H11V6H6Z"/>
    </svg>

</svg>

